<svg xmlns="http://www.w3.org/2000/svg" xmlns:xlink="http://www.w3.org/1999/xlink" width="64" height="64" viewBox="0 0 64 64">

  <defs>
    <filter id="Ellipse_65" x="0" y="0" width="64" height="64" filterUnits="userSpaceOnUse">
      <feOffset dy="3" input="SourceAlpha"/>
      <feGaussianBlur stdDeviation="3" result="blur"/>
      <feFlood flood-opacity="0.161"/>
      <feComposite operator="in" in2="blur"/>
      <feComposite in="SourceGraphic"/>
    </filter>
  </defs>
  <g id="Component_1_12" data-name="Component 1 – 12" transform="translate(9 6)">
    <g id="Group_199" data-name="Group 199" transform="translate(-167.629 -66.629)">
      <g transform="matrix(1, 0, 0, 1, 158.63, 60.63)" filter="url(#Ellipse_65)">
        <circle id="Ellipse_65-2" data-name="Ellipse 65" cx="23" cy="23" r="23" transform="translate(9 6)" fill="#fff"/>
      </g>
      <g id="Component_2_11" data-name="Component 2 – 11" transform="translate(174.629 79.629)">
        <g id="Group_960" data-name="Group 960" transform="translate(0 0)">
          <g id="icon_1_" transform="translate(0 0)">
            <g id="line_art_1_" transform="translate(0 0)">
              <g id="Group_221" data-name="Group 221" transform="translate(1.448 7.671)">
                <path id="Path_88" data-name="Path 88" d="M28.3,107.267a.371.371,0,0,1-.267-.115L19.394,98.14l-.016-.016-.086-.091a.406.406,0,0,1,0-.557.367.367,0,0,1,.534,0l.078.082.02.02,8.638,9.014a.406.406,0,0,1,0,.557A.366.366,0,0,1,28.3,107.267ZM19.4,98.147l.01.009Z" transform="translate(-19.182 -97.362)" fill="#2d435b"/>
              </g>
              <g id="Group_222" data-name="Group 222" transform="translate(1.901)">
                <path id="Path_89" data-name="Path 89" d="M39.273,11.885a.386.386,0,0,1-.378-.394V1.807a4.727,4.727,0,0,0-1.487-.755,10.05,10.05,0,0,0-5.982.488,24.971,24.971,0,0,0-5.638,2.779l-.017.011a.369.369,0,0,1-.526-.093.4.4,0,0,1,.085-.546c.022-.017.043-.031.065-.044A25.687,25.687,0,0,1,31.2.787,10.724,10.724,0,0,1,37.621.3a5.447,5.447,0,0,1,1.783.923l.1.084a.4.4,0,0,1,.143.309V11.49A.389.389,0,0,1,39.273,11.885Z" transform="translate(-25.175 0.003)" fill="#2d435b"/>
              </g>
              <g id="Group_223" data-name="Group 223" transform="translate(0.568 9.059)">
                <path id="Path_90" data-name="Path 90" d="M18.58,126.915a.371.371,0,0,1-.267-.115L7.628,115.65a.406.406,0,0,1,0-.557.367.367,0,0,1,.534,0l10.685,11.149a.406.406,0,0,1,0,.557A.369.369,0,0,1,18.58,126.915Z" transform="translate(-7.517 -114.977)" fill="#2d435b"/>
              </g>
              <g id="Group_224" data-name="Group 224" transform="translate(0 6.228)">
                <path id="Path_91" data-name="Path 91" d="M.945,82.667a.366.366,0,0,1-.254-.1,2.268,2.268,0,0,1-.041-3.221,3.324,3.324,0,0,1,.251-.22.367.367,0,0,1,.527.088.4.4,0,0,1-.085.55c-.051.039-.136.116-.177.156a1.428,1.428,0,0,0-.412,1.017A1.448,1.448,0,0,0,1.2,81.983a.406.406,0,0,1,.025.556A.37.37,0,0,1,.945,82.667Z" transform="translate(0 -79.049)" fill="#2d435b"/>
              </g>
              <g id="Group_225" data-name="Group 225" transform="translate(0.746 3.556)">
                <path id="Path_92" data-name="Path 92" d="M10.96,50.035a.369.369,0,0,1-.273-.122,3.1,3.1,0,0,1-.806-2.1A3.072,3.072,0,0,1,11.2,45.265c.019-.014.038-.026.057-.038l.05-.032a.369.369,0,0,1,.522.12.405.405,0,0,1-.115.544l-.041.027-.019.012-.02.013-.014.01a2.319,2.319,0,0,0-.384,3.449.406.406,0,0,1-.013.557A.372.372,0,0,1,10.96,50.035Z" transform="translate(-9.88 -45.133)" fill="#2d435b"/>
              </g>
              <g id="Group_226" data-name="Group 226" transform="translate(21.058 7.67)">
                <path id="Path_93" data-name="Path 93" d="M279.275,107.254a.371.371,0,0,1-.267-.115.406.406,0,0,1,0-.557l8.641-9.016.019-.019.078-.082a.366.366,0,0,1,.534,0,.406.406,0,0,1,0,.557l-.086.091-.016.016-8.637,9.012A.369.369,0,0,1,279.275,107.254Zm8.885-9.111Zm0,0,0,0Z" transform="translate(-278.897 -97.349)" fill="#2d435b"/>
              </g>
              <g id="Group_227" data-name="Group 227" transform="translate(15.622 0)">
                <path id="Path_94" data-name="Path 94" d="M207.277,11.885a.386.386,0,0,1-.378-.394V1.612a.4.4,0,0,1,.143-.309l.1-.084A5.459,5.459,0,0,1,208.93.3a10.723,10.723,0,0,1,6.42.492,25.687,25.687,0,0,1,5.806,2.859c.022.014.043.028.065.044a.4.4,0,0,1,.085.55.368.368,0,0,1-.527.089l-.017-.011a24.944,24.944,0,0,0-5.638-2.779,10.051,10.051,0,0,0-5.982-.488,4.735,4.735,0,0,0-1.487.755v9.683A.388.388,0,0,1,207.277,11.885Z" transform="translate(-206.9 0.003)" fill="#2d435b"/>
              </g>
              <g id="Group_228" data-name="Group 228" transform="translate(19.991 9.059)">
                <path id="Path_95" data-name="Path 95" d="M265.145,126.924a.371.371,0,0,1-.267-.115.406.406,0,0,1,0-.557L275.563,115.1a.367.367,0,0,1,.534,0,.406.406,0,0,1,0,.557l-10.684,11.149A.369.369,0,0,1,265.145,126.924Z" transform="translate(-264.767 -114.988)" fill="#2d435b"/>
              </g>
              <g id="Group_229" data-name="Group 229" transform="translate(30.497 6.227)">
                <path id="Path_96" data-name="Path 96" d="M404.476,82.658a.369.369,0,0,1-.279-.129.406.406,0,0,1,.025-.556,1.458,1.458,0,0,0,.026-2.07c-.035-.034-.12-.111-.171-.15a.4.4,0,0,1-.085-.55.367.367,0,0,1,.527-.088c.1.079.232.2.246.214a2.269,2.269,0,0,1-.035,3.226A.365.365,0,0,1,404.476,82.658Z" transform="translate(-403.919 -79.039)" fill="#2d435b"/>
              </g>
              <g id="Group_230" data-name="Group 230" transform="translate(29.248 3.555)">
                <path id="Path_97" data-name="Path 97" d="M388.3,50.024a.369.369,0,0,1-.26-.109.407.407,0,0,1-.013-.557,2.319,2.319,0,0,0-.384-3.449l-.014-.01-.017-.011-.021-.014-.041-.027a.4.4,0,0,1-.115-.544.368.368,0,0,1,.522-.12l.053.034c.017.01.035.022.054.036a3.129,3.129,0,0,1,.511,4.648A.372.372,0,0,1,388.3,50.024Z" transform="translate(-387.38 -45.12)" fill="#2d435b"/>
              </g>
              <g id="Group_231" data-name="Group 231" transform="translate(10.171 11.1)">
                <path id="Path_98" data-name="Path 98" d="M140.538,153.053a6.087,6.087,0,1,1,5.828-6.081A5.966,5.966,0,0,1,140.538,153.053Zm0-11.375a5.3,5.3,0,1,0,5.073,5.293A5.193,5.193,0,0,0,140.538,141.678Z" transform="translate(-134.71 -140.89)" fill="#2d435b"/>
              </g>
              <g id="Group_232" data-name="Group 232" transform="translate(13.744 14.828)">
                <path id="Path_99" data-name="Path 99" d="M184.285,192.917a2.355,2.355,0,1,1,2.255-2.353A2.308,2.308,0,0,1,184.285,192.917Zm0-3.919a1.567,1.567,0,1,0,1.5,1.565A1.535,1.535,0,0,0,184.285,189Z" transform="translate(-182.03 -188.21)" fill="#2d435b"/>
              </g>
              <g id="Group_233" data-name="Group 233" transform="translate(3.364 2.824)">
                <path id="Path_100" data-name="Path 100" d="M44.929,39.61a.373.373,0,0,1-.32-.185.4.4,0,0,1,.12-.543c1.537-1,6.872-4.161,10.987-2.638a.4.4,0,0,1,.23.5.374.374,0,0,1-.482.24c-3.8-1.4-8.87,1.607-10.335,2.564A.367.367,0,0,1,44.929,39.61Z" transform="translate(-44.551 -35.836)" fill="#2d435b"/>
              </g>
              <g id="Group_234" data-name="Group 234" transform="translate(5.964 5.993)">
                <path id="Path_101" data-name="Path 101" d="M79.373,79.916a.37.37,0,0,1-.281-.131.406.406,0,0,1,.028-.556c4.439-4.168,8.1-3.037,8.249-2.987a.4.4,0,0,1,.248.494.374.374,0,0,1-.472.258,5.254,5.254,0,0,0-2.2-.052,10.206,10.206,0,0,0-5.32,2.872A.371.371,0,0,1,79.373,79.916Z" transform="translate(-78.995 -76.066)" fill="#2d435b"/>
              </g>
              <g id="Group_235" data-name="Group 235" transform="translate(8.801 11.531)">
                <path id="Path_102" data-name="Path 102" d="M116.946,147.925a.367.367,0,0,1-.172-.043.4.4,0,0,1-.164-.53,7.719,7.719,0,0,1,.464-.819.368.368,0,0,1,.525-.1.405.405,0,0,1,.1.548,7.039,7.039,0,0,0-.417.735A.375.375,0,0,1,116.946,147.925Z" transform="translate(-116.568 -146.361)" fill="#2d435b"/>
              </g>
              <g id="Group_236" data-name="Group 236" transform="translate(9.243 8.939)">
                <path id="Path_103" data-name="Path 103" d="M122.792,116.835a.363.363,0,0,1-.212-.069.405.405,0,0,1-.1-.548,5.7,5.7,0,0,1,4.945-2.759.389.389,0,0,1,.35.421.382.382,0,0,1-.4.365,4.963,4.963,0,0,0-4.268,2.416A.371.371,0,0,1,122.792,116.835Z" transform="translate(-122.415 -113.455)" fill="#2d435b"/>
              </g>
              <g id="Group_237" data-name="Group 237" transform="translate(18.415 0.304)">
                <path id="Path_104" data-name="Path 104" d="M246.923,14.611a.378.378,0,0,1-.349-.243l-.714-1.8-1.351,1.072a.365.365,0,0,1-.432.018.4.4,0,0,1-.165-.417c1.348-6.383,3.469-9.121,3.559-9.234A.367.367,0,0,1,248,3.952a.405.405,0,0,1,.051.554h0c-.02.025-1.861,2.417-3.165,7.841l.9-.718a.366.366,0,0,1,.327-.067.38.38,0,0,1,.25.23l.455,1.147C248.168,7.405,250.03,5,250.113,4.9a.367.367,0,0,1,.532-.054.406.406,0,0,1,.051.555c-.02.026-2.1,2.728-3.4,8.9a.383.383,0,0,1-.336.307Z" transform="translate(-243.903 -3.862)" fill="#2d435b"/>
              </g>
            </g>
          </g>
        </g>
      </g>
    </g>
  </g>
</svg>
