<svg xmlns="http://www.w3.org/2000/svg" width="21.875" height="21.871" viewBox="0 0 21.875 21.871"><path d="M0,8.015c.1,1.715.092,3.138.085,4.393-.02,3.328-.051,5.5,2.289,7.836a5.774,5.774,0,0,0,8.157,0h0L16.877,13.9a1.923,1.923,0,0,0-.531-3.094L17.4,9.754a1.921,1.921,0,0,0-.6-3.124,1.922,1.922,0,0,0-.872-2.7,1.923,1.923,0,0,0-2.572-2.708,1.924,1.924,0,0,0-3.124-.6C10.195.66,6.842,4,4.7,6.144l-.33-2.33a1.923,1.923,0,0,0-3.844,0c0,.018,0,.036,0,.053C.574,4.74.6,5.618.61,6.606A1.9,1.9,0,0,0,0,8.015Zm15.969,4.978L9.627,19.337a4.491,4.491,0,0,1-6.344,0c-1.943-1.943-1.934-3.607-1.914-6.922.008-1.267.016-2.7-.085-4.445a.642.642,0,0,1,1.093-.415c.217.217.134.311.194.543v0l.514,3.638a.641.641,0,0,0,1.088.363l6.378-6.377a.64.64,0,0,1,.888.923h0L8.72,9.368a.641.641,0,0,0,.906.906l3.625-3.625a.641.641,0,0,1,.906.906l-3.625,3.625a.641.641,0,0,0,.906.906l2.719-2.719a.641.641,0,0,1,.906.906l-2.719,2.719a.641.641,0,0,0,.906.906l1.816-1.816a.641.641,0,0,1,.9.909Zm-.386-7.771a.64.64,0,0,1,0,.906l-.145.145a1.937,1.937,0,0,0-.906-.906l.145-.145a.642.642,0,0,1,.906,0Zm.906,3.625-.145.145a1.918,1.918,0,0,0-.906-.906l.145-.145a.641.641,0,0,1,.906.906ZM14.764,2.434a.64.64,0,0,1,0,.9L12.722,5.367a1.927,1.927,0,0,0-.9-.9l2.038-2.03a.642.642,0,0,1,.906,0ZM4.694,7.957c1.914-1.914,6.4-6.384,6.445-6.429a.641.641,0,0,1,.944.865C6.09,8.374,14.9-.439,4.175,10.289L3.853,8.014a.64.64,0,0,0,.841-.057ZM1.8,3.825A.642.642,0,0,1,2.9,3.41c.217.217.134.311.194.543l.42,2.971a1.918,1.918,0,0,0-1.626-.837C1.873,5.291,1.847,4.556,1.8,3.825Z" transform="translate(0 -0.059)" fill="#2d435b"/><path d="M453.943,92.042h-1.282a.641.641,0,0,0,0,1.282h1.282a.641.641,0,0,0,0-1.282Z" transform="translate(-432.708 -88.111)" fill="#2d435b"/><path d="M422.114,2.417,423.4,1.135a.641.641,0,0,0-.906-.906l-1.282,1.282a.641.641,0,1,0,.906.906Z" transform="translate(-403.033 -0.041)" fill="#2d435b"/></svg>