<svg id="Group_905" data-name="Group 905" xmlns="http://www.w3.org/2000/svg" width="24.281" height="20.232" viewBox="0 0 24.281 20.232">
  <g id="Group_536" data-name="Group 536">
    <g id="Group_535" data-name="Group 535">
      <g id="Group_534" data-name="Group 534">
        <g id="Group_533" data-name="Group 533">
          <path id="Path_149" data-name="Path 149" d="M17.733,232.639a5.8,5.8,0,0,1,5.79,5.787c0,2.35-1.776,4.244-3.511,5.787-1.034.918-2.1,1.836-3.139,2.724-1.212,1.04-2.466,2.115-3.678,3.2-.015.015-.076.071-.164.152-.367.339-.66.61-.878.807q-2.47-2.223-4.94-4.449l-2.529-2.279-.223-.2c-1.821-1.637-3.7-3.326-3.7-5.747a5.789,5.789,0,0,1,10.734-3.008l.648,1.063.648-1.063a5.753,5.753,0,0,1,4.945-2.78m0-.759a6.54,6.54,0,0,0-5.592,3.144A6.547,6.547,0,0,0,0,238.426c0,2.866,2.218,4.748,4.176,6.511q3.984,3.589,7.965,7.175h0c.048,0,1.475-1.328,1.561-1.406,2.238-2.013,4.563-3.928,6.814-5.926,1.854-1.646,3.766-3.715,3.766-6.353a6.547,6.547,0,0,0-6.548-6.546Z" transform="translate(0 -231.88)" fill="#2d435b"/>
        </g>
      </g>
    </g>
  </g>
</svg>
