<svg xmlns="http://www.w3.org/2000/svg" width="40" height="40" viewBox="0 0 40 40">
  <g id="Group_96" data-name="Group 96" transform="translate(-1807 -1599)">
    <circle id="Ellipse_31" data-name="Ellipse 31" cx="20" cy="20" r="20" transform="translate(1807 1599)" fill="#2d435b"/>
    <g id="Group_64" data-name="Group 64" transform="translate(1816.092 1609.469)">
      <g id="Path_21" data-name="Path 21" transform="translate(-10.854 0)" fill="none">
        <path d="M14.986,0H27.864A4.132,4.132,0,0,1,32,4.132V19.973l-5.178-2.941H14.986A4.132,4.132,0,0,1,10.854,12.9V4.132A4.132,4.132,0,0,1,14.986,0Z" stroke="none"/>
        <path d="M 14.9862232208252 1.299995422363281 C 13.42447280883789 1.299995422363281 12.15390396118164 2.570566177368164 12.15390396118164 4.132316589355469 L 12.15390396118164 12.89938640594482 C 12.15390396118164 14.46113586425781 13.42447280883789 15.7317066192627 14.9862232208252 15.7317066192627 L 26.81891250610352 15.7317066192627 L 27.16236305236816 15.7317066192627 L 27.46099281311035 15.90133666992188 L 30.69676208496094 17.73933601379395 L 30.69676208496094 4.132316589355469 C 30.69676208496094 2.570566177368164 29.42619323730469 1.299995422363281 27.86444282531738 1.299995422363281 L 14.9862232208252 1.299995422363281 M 14.9862232208252 -3.814697265625e-06 L 27.86444282531738 -3.814697265625e-06 C 30.14666366577148 -3.814697265625e-06 31.99676322937012 1.850095748901367 31.99676322937012 4.132316589355469 L 31.99676322937012 19.97285652160645 L 26.81891250610352 17.03170585632324 L 14.9862232208252 17.03170585632324 C 12.70400238037109 17.03170585632324 10.85390281677246 15.18160629272461 10.85390281677246 12.89938640594482 L 10.85390281677246 4.132316589355469 C 10.85390281677246 1.850095748901367 12.70400238037109 -3.814697265625e-06 14.9862232208252 -3.814697265625e-06 Z" stroke="none" fill="#fff"/>
      </g>
      <line id="Line_7" data-name="Line 7" x2="9.383" transform="translate(4.547 5.848)" fill="none" stroke="#fff" stroke-width="1.3"/>
      <line id="Line_8" data-name="Line 8" x2="6.529" transform="translate(4.547 8.181)" fill="none" stroke="#fff" stroke-width="1.3"/>
      <line id="Line_9" data-name="Line 9" x2="10.334" transform="translate(4.547 10.514)" fill="none" stroke="#fff" stroke-width="1.3"/>
    </g>
  </g>
</svg>
