<svg id="Group_906" data-name="Group 906" xmlns="http://www.w3.org/2000/svg" width="21.243" height="21.563" viewBox="0 0 21.243 21.563">
  <g id="Group_582" data-name="Group 582">
    <g id="Group_546" data-name="Group 546" transform="translate(8.048 16.42)">
      <g id="Group_541" data-name="Group 541" transform="translate(0.34 0.34)">
        <g id="Group_540" data-name="Group 540">
          <g id="Group_539" data-name="Group 539">
            <g id="Group_538" data-name="Group 538">
              <circle id="Ellipse_103" data-name="Ellipse 103" cx="2.231" cy="2.231" r="2.231" fill="#f9c5c5"/>
            </g>
          </g>
        </g>
      </g>
      <g id="Group_545" data-name="Group 545">
        <g id="Group_544" data-name="Group 544">
          <g id="Group_543" data-name="Group 543">
            <g id="Group_542" data-name="Group 542">
              <path id="Path_150" data-name="Path 150" d="M487.4,185.49a1.891,1.891,0,1,1-1.891,1.891,1.893,1.893,0,0,1,1.891-1.891m0-.68a2.571,2.571,0,1,0,2.571,2.571,2.572,2.572,0,0,0-2.571-2.571Z" transform="translate(-484.83 -184.81)" fill="#f9c5c5"/>
            </g>
          </g>
        </g>
      </g>
    </g>
    <g id="Group_553" data-name="Group 553">
      <g id="Group_549" data-name="Group 549" transform="translate(0.345 0.338)">
        <g id="Group_548" data-name="Group 548">
          <g id="Group_547" data-name="Group 547">
            <path id="Path_151" data-name="Path 151" d="M471.422,120.62v1.463a6.782,6.782,0,0,1-1.909,4.667,6.2,6.2,0,0,1-2.946,1.749c-1.293.322-2.578.419-3.63,1.324a5.161,5.161,0,0,0-1.778,3.315.019.019,0,0,1-.039,0,4.862,4.862,0,0,0-1.687-3.113,7.347,7.347,0,0,0-3.546-1.436,6.22,6.22,0,0,1-2.78-1.49,6.823,6.823,0,0,1-2.247-5V120.6a6.707,6.707,0,0,1,6.71-6.708h7.123A6.731,6.731,0,0,1,471.422,120.62Z" transform="translate(-450.86 -113.89)" fill="#fff"/>
          </g>
        </g>
      </g>
      <g id="Group_552" data-name="Group 552">
        <g id="Group_551" data-name="Group 551">
          <g id="Group_550" data-name="Group 550">
            <path id="Path_152" data-name="Path 152" d="M459.964,132.346h0a.36.36,0,0,1-.358-.326,4.545,4.545,0,0,0-1.574-2.891,6.538,6.538,0,0,0-3.165-1.306l-.231-.052A6.577,6.577,0,0,1,451.7,126.2a7.211,7.211,0,0,1-2.36-5.247v-1.506a7.057,7.057,0,0,1,7.05-7.048h7.122a7.079,7.079,0,0,1,7.071,7.07v1.463a7.139,7.139,0,0,1-2,4.9,6.547,6.547,0,0,1-3.108,1.841c-.272.068-.545.125-.812.184a5.666,5.666,0,0,0-2.681,1.068,4.828,4.828,0,0,0-1.659,3.093A.353.353,0,0,1,459.964,132.346Zm-.317-.395Z" transform="translate(-449.34 -112.4)" fill="#ff7b7b"/>
          </g>
        </g>
      </g>
    </g>
    <g id="Group_581" data-name="Group 581" transform="translate(8.984 2.68)">
      <g id="Group_562" data-name="Group 562" transform="translate(0)">
        <g id="Group_557" data-name="Group 557" transform="translate(0.34 0.34)">
          <g id="Group_556" data-name="Group 556">
            <g id="Group_555" data-name="Group 555">
              <g id="Group_554" data-name="Group 554">
                <path id="Path_153" data-name="Path 153" d="M491.755,128.31a1.295,1.295,0,1,1,1.295-1.295A1.3,1.3,0,0,1,491.755,128.31Z" transform="translate(-490.46 -125.72)" fill="#fff"/>
              </g>
            </g>
          </g>
        </g>
        <g id="Group_561" data-name="Group 561">
          <g id="Group_560" data-name="Group 560">
            <g id="Group_559" data-name="Group 559">
              <g id="Group_558" data-name="Group 558">
                <path id="Path_154" data-name="Path 154" d="M490.595,124.9a.955.955,0,1,1-.954.955.956.956,0,0,1,.954-.955m0-.68a1.635,1.635,0,1,0,1.635,1.635,1.635,1.635,0,0,0-1.635-1.635Z" transform="translate(-488.96 -124.22)" fill="#fff"/>
              </g>
            </g>
          </g>
        </g>
      </g>
      <g id="Group_571" data-name="Group 571" transform="translate(0.478 8.857)">
        <g id="Group_566" data-name="Group 566" transform="translate(0.34 0.34)">
          <g id="Group_565" data-name="Group 565">
            <g id="Group_564" data-name="Group 564">
              <g id="Group_563" data-name="Group 563">
                <path id="Path_155" data-name="Path 155" d="M493.387,166.413a.816.816,0,1,1,.816-.816A.819.819,0,0,1,493.387,166.413Z" transform="translate(-492.57 -164.78)" fill="#fff"/>
              </g>
            </g>
          </g>
        </g>
        <g id="Group_570" data-name="Group 570">
          <g id="Group_569" data-name="Group 569">
            <g id="Group_568" data-name="Group 568">
              <g id="Group_567" data-name="Group 567">
                <path id="Path_156" data-name="Path 156" d="M492.227,163.96a.476.476,0,1,1-.476.476.477.477,0,0,1,.476-.476m0-.68a1.156,1.156,0,1,0,1.156,1.156,1.156,1.156,0,0,0-1.156-1.156Z" transform="translate(-491.07 -163.28)" fill="#fff"/>
              </g>
            </g>
          </g>
        </g>
      </g>
      <g id="Group_580" data-name="Group 580" transform="translate(0 1.701)">
        <g id="Group_575" data-name="Group 575" transform="translate(0.415 0.338)">
          <g id="Group_574" data-name="Group 574">
            <g id="Group_573" data-name="Group 573">
              <g id="Group_572" data-name="Group 572">
                <path id="Path_157" data-name="Path 157" d="M492,138.312a.2.2,0,0,1-.2-.165l-1.011-4.937h2.435l-1.023,4.937a.192.192,0,0,1-.2.165Z" transform="translate(-490.79 -133.21)" fill="#fff"/>
              </g>
            </g>
          </g>
        </g>
        <g id="Group_579" data-name="Group 579">
          <g id="Group_578" data-name="Group 578">
            <g id="Group_577" data-name="Group 577">
              <g id="Group_576" data-name="Group 576">
                <path id="Path_158" data-name="Path 158" d="M491.394,132.4l-.806,3.889-.8-3.889h1.6m.836-.68Zm0,0h-3.27l1.093,5.345a.547.547,0,0,0,1.071,0l1.106-5.345Z" transform="translate(-488.96 -131.72)" fill="#fff"/>
              </g>
            </g>
          </g>
        </g>
      </g>
    </g>
  </g>
</svg>
