<svg id="Group_966" data-name="Group 966" xmlns="http://www.w3.org/2000/svg" width="21.263" height="21.586" viewBox="0 0 21.263 21.586">
  <g id="Group_592" data-name="Group 592" transform="translate(8.052 16.438)">
    <g id="Group_587" data-name="Group 587" transform="translate(0.34 0.34)">
      <g id="Group_586" data-name="Group 586">
        <g id="Group_585" data-name="Group 585">
          <g id="Group_584" data-name="Group 584">
            <path id="Path_159" data-name="Path 159" d="M376.353,190.967a2.234,2.234,0,1,1,2.234-2.233A2.236,2.236,0,0,1,376.353,190.967Z" transform="translate(-374.12 -186.5)" fill="#7eabdb"/>
          </g>
        </g>
      </g>
    </g>
    <g id="Group_591" data-name="Group 591">
      <g id="Group_590" data-name="Group 590">
        <g id="Group_589" data-name="Group 589">
          <g id="Group_588" data-name="Group 588">
            <path id="Path_160" data-name="Path 160" d="M375.194,185.68a1.894,1.894,0,1,1-1.893,1.894,1.9,1.9,0,0,1,1.893-1.894m0-.68a2.574,2.574,0,1,0,2.574,2.574A2.573,2.573,0,0,0,375.194,185Z" transform="translate(-372.62 -185)" fill="#7eabdb"/>
          </g>
        </g>
      </g>
    </g>
  </g>
  <g id="Group_599" data-name="Group 599">
    <g id="Group_595" data-name="Group 595" transform="translate(0.345 0.338)">
      <g id="Group_594" data-name="Group 594">
        <g id="Group_593" data-name="Group 593">
          <path id="Path_161" data-name="Path 161" d="M359.211,120.739V122.2a6.79,6.79,0,0,1-1.911,4.671,6.242,6.242,0,0,1-2.948,1.751c-1.293.322-2.581.42-3.635,1.327a5.159,5.159,0,0,0-1.778,3.32.019.019,0,0,1-.039,0,4.88,4.88,0,0,0-1.689-3.118,7.355,7.355,0,0,0-3.549-1.438,6.24,6.24,0,0,1-2.783-1.492,6.835,6.835,0,0,1-2.249-5v-1.508A6.716,6.716,0,0,1,345.347,114h7.13A6.739,6.739,0,0,1,359.211,120.739Z" transform="translate(-338.63 -114)" fill="#fff"/>
        </g>
      </g>
    </g>
    <g id="Group_598" data-name="Group 598">
      <g id="Group_597" data-name="Group 597">
        <g id="Group_596" data-name="Group 596">
          <path id="Path_162" data-name="Path 162" d="M347.743,132.476h0a.358.358,0,0,1-.358-.327,4.534,4.534,0,0,0-1.576-2.893,6.558,6.558,0,0,0-3.168-1.308l-.231-.052a6.567,6.567,0,0,1-2.937-1.571,7.223,7.223,0,0,1-2.363-5.252v-1.508a7.065,7.065,0,0,1,7.057-7.055H351.3a7.085,7.085,0,0,1,7.077,7.077v1.463a7.149,7.149,0,0,1-2.007,4.907,6.534,6.534,0,0,1-3.111,1.844c-.272.068-.544.127-.814.184a5.677,5.677,0,0,0-2.683,1.07,4.85,4.85,0,0,0-1.662,3.1A.354.354,0,0,1,347.743,132.476Z" transform="translate(-337.11 -112.51)" fill="#2d435b"/>
        </g>
      </g>
    </g>
  </g>
  <g id="Group_606" data-name="Group 606" transform="translate(6.56 3.723)">
    <g id="Group_602" data-name="Group 602" transform="translate(0.34 0.34)">
      <g id="Group_601" data-name="Group 601">
        <g id="Group_600" data-name="Group 600">
          <line id="Line_31" data-name="Line 31" x1="7.49" fill="#231f20"/>
        </g>
      </g>
    </g>
    <g id="Group_605" data-name="Group 605">
      <g id="Group_604" data-name="Group 604">
        <g id="Group_603" data-name="Group 603">
          <path id="Path_163" data-name="Path 163" d="M373.87,129.61h-7.49a.34.34,0,0,1,0-.68h7.49a.34.34,0,1,1,0,.68Z" transform="translate(-366.04 -128.93)" fill="#fff"/>
        </g>
      </g>
    </g>
  </g>
  <g id="Group_613" data-name="Group 613" transform="translate(6.56 7.467)">
    <g id="Group_609" data-name="Group 609" transform="translate(0.34 0.34)">
      <g id="Group_608" data-name="Group 608">
        <g id="Group_607" data-name="Group 607">
          <line id="Line_32" data-name="Line 32" x1="7.49" fill="#231f20"/>
        </g>
      </g>
    </g>
    <g id="Group_612" data-name="Group 612">
      <g id="Group_611" data-name="Group 611">
        <g id="Group_610" data-name="Group 610">
          <path id="Path_164" data-name="Path 164" d="M373.87,146.12h-7.49a.34.34,0,0,1,0-.68h7.49a.34.34,0,1,1,0,.68Z" transform="translate(-366.04 -145.44)" fill="#fff"/>
        </g>
      </g>
    </g>
  </g>
  <g id="Group_620" data-name="Group 620" transform="translate(6.56 11.2)">
    <g id="Group_616" data-name="Group 616" transform="translate(0.34 0.34)">
      <g id="Group_615" data-name="Group 615">
        <g id="Group_614" data-name="Group 614">
          <line id="Line_33" data-name="Line 33" x1="7.49" fill="#231f20"/>
        </g>
      </g>
    </g>
    <g id="Group_619" data-name="Group 619">
      <g id="Group_618" data-name="Group 618">
        <g id="Group_617" data-name="Group 617">
          <path id="Path_165" data-name="Path 165" d="M373.87,162.58h-7.49a.34.34,0,0,1,0-.68h7.49a.34.34,0,1,1,0,.68Z" transform="translate(-366.04 -161.9)" fill="#fff"/>
        </g>
      </g>
    </g>
  </g>
</svg>
